<svg width="336" height="304" viewBox="0 0 336 304" fill="none" xmlns="http://www.w3.org/2000/svg">
<g id="Mu&#195;&#177;eco 1" clip-path="url(#clip0_38_3)">
<g id="Clip path group">
<mask id="mask0_38_3" style="mask-type:luminance" maskUnits="userSpaceOnUse" x="0" y="0" width="336" height="304">
<g id="clip0_2_1323">
<path id="Vector" d="M336 0H0V304H336V0Z" fill="white"/>
</g>
</mask>
<g mask="url(#mask0_38_3)">
<g id="Group">
<path id="Vector_2" d="M6.61315 249.661C9.5463 248.225 10.7915 244.414 13.9737 243.42C17.2389 242.399 20.8638 244.414 23.8523 242.205C25.1528 241.239 26.1213 239.637 27.6986 239.057C29.0822 238.56 30.5211 239.112 31.8493 239.527C32.9838 239.886 34.1183 240.217 35.2528 240.576C39.8186 241.984 44.3567 243.365 48.9224 244.773C54.0969 246.347 59.2438 247.949 64.4183 249.523C64.9164 249.689 65.1377 248.888 64.6396 248.722C55.1761 245.823 45.7402 242.923 36.2767 240.024C34.063 239.361 31.7663 238.339 29.4696 238.063C27.8646 237.87 26.5918 238.505 25.4572 239.554C23.88 241.018 22.6901 242.371 20.3934 242.481C18.4841 242.592 16.6024 242.095 14.6931 242.399C10.7638 243.006 9.54629 247.286 6.22575 248.916C5.72767 249.192 6.14274 249.91 6.61315 249.661Z" fill="#E8E8E8"/>
<path id="Vector_3" d="M56.3382 246.182C58.3029 246.679 59.8525 244.718 61.6234 244.138C64.0031 243.337 66.5489 243.669 68.7072 244.911C69.1777 245.187 69.5927 244.469 69.1223 244.193C67.296 243.116 65.2207 242.675 63.1177 242.951C62.2045 243.061 61.3467 243.31 60.5166 243.669C59.3267 244.193 57.9432 245.712 56.5596 245.381C56.0338 245.243 55.8125 246.044 56.3382 246.182Z" fill="#E8E8E8"/>
<path id="Vector_4" d="M77.6728 244.111C75.8188 242.592 74.0478 240.963 72.3876 239.223C71.6128 238.422 70.8657 237.566 70.1462 236.71C69.7311 236.213 69.3161 235.716 68.9287 235.219C68.652 234.86 68.3752 234.501 68.1262 234.142C67.6835 233.7 67.6835 233.148 68.1539 232.54C68.4859 232.678 69.0117 232.347 68.735 231.96C67.047 229.696 65.8018 227.211 64.9994 224.504C64.8333 224.67 64.6673 224.836 64.5013 225.001C65.4144 225.25 66.0785 225.719 66.5766 226.493C66.8533 226.934 67.5728 226.548 67.2961 226.078C63.1731 218.954 59.7972 211.443 57.2514 203.628C57.0301 203.766 56.781 203.904 56.5596 204.042C68.1539 215.419 73.4114 231.242 83.1793 243.973C83.5114 244.387 84.2308 243.973 83.8988 243.558C74.1032 230.773 68.7903 214.895 57.1407 203.462C56.864 203.186 56.3106 203.462 56.449 203.876C59.0224 211.774 62.3983 219.341 66.5766 226.52C66.8257 226.382 67.047 226.244 67.2961 226.106C66.6596 225.14 65.8295 224.504 64.7227 224.228C64.4183 224.145 64.1139 224.422 64.2246 224.725C65.0547 227.487 66.3276 230.055 68.0432 232.375C68.2369 232.181 68.4306 231.988 68.6243 231.795C67.8495 231.436 66.9917 231.795 66.798 232.706C66.549 234.004 68.1262 235.44 68.8457 236.351C71.3084 239.416 74.1032 242.205 77.147 244.69C77.5067 245.022 78.0878 244.442 77.6728 244.111Z" fill="#E8E8E8"/>
<path id="Vector_5" d="M74.7672 226.852C69.6757 219.258 65.5527 211.111 62.5089 202.496C62.4259 202.661 62.3152 202.827 62.2322 202.993C63.173 202.772 63.9755 203.131 64.5012 203.959C64.7779 204.429 65.442 204.015 65.2207 203.545C60.9316 194.294 56.5596 184.657 56.864 174.246C56.6149 174.329 56.3382 174.384 56.0892 174.467C63.4774 189.655 70.5059 205.036 77.147 220.556C77.3407 220.997 78.0601 220.666 77.8941 220.224C76.7872 216.91 75.7081 213.569 74.6012 210.255C74.0755 208.626 73.522 207.025 72.9963 205.395C72.6366 204.318 71.8618 201.971 73.4114 201.391C73.2453 201.336 73.107 201.253 72.9409 201.198C74.9333 205.091 76.8979 208.985 78.8902 212.879C79.1393 213.348 79.8588 212.934 79.6097 212.465C77.4514 208.24 76.4552 203.573 76.6489 198.823C76.3722 198.851 76.0955 198.906 75.8464 198.933C81.602 213.21 88.2708 227.128 95.7697 240.576C96.0187 241.045 96.7382 240.631 96.4891 240.162C89.0179 226.769 82.3768 212.934 76.6489 198.713C76.4829 198.298 75.8464 198.326 75.8464 198.823C75.6527 203.711 76.7042 208.488 78.9179 212.879C79.167 212.741 79.3883 212.603 79.6374 212.465C77.645 208.571 75.6804 204.677 73.6881 200.784C73.6051 200.646 73.3837 200.535 73.2177 200.59C70.4505 201.612 72.2215 205.561 72.8303 207.411C74.2692 211.747 75.6804 216.11 77.1193 220.445C77.3683 220.335 77.6174 220.224 77.8664 220.114C71.2253 204.594 64.1968 189.213 56.8086 174.025C56.6149 173.639 56.0338 173.86 56.0338 174.246C55.7018 184.795 60.1568 194.598 64.5012 203.959C64.7503 203.821 64.9716 203.683 65.2207 203.545C64.5012 202.413 63.339 201.916 62.0108 202.192C61.7894 202.247 61.6511 202.496 61.7341 202.689C64.8056 211.36 68.9563 219.589 74.0755 227.238C74.3522 227.708 75.0716 227.293 74.7672 226.852Z" fill="#E8E8E8"/>
<path id="Vector_6" d="M20.089 280.23C29.6632 275.619 39.7632 270.924 50.6933 272.029C55.8678 272.553 60.8763 274.045 66.0231 274.707C68.6242 275.039 71.253 275.177 73.8541 274.873C76.2892 274.569 78.5859 273.686 80.9656 273.161C84.0371 272.471 86.8319 273.189 89.7927 274.017C92.2278 274.68 94.6352 275.232 97.1532 274.652C97.679 274.542 97.4576 273.741 96.9319 273.851C91.8957 275.039 87.1639 271.421 82.0724 272.139C79.5544 272.498 77.2023 273.492 74.7119 273.934C72.0831 274.376 69.399 274.321 66.7426 273.989C61.5127 273.382 56.4212 271.835 51.1637 271.256C45.9892 270.676 40.87 271.338 35.9169 272.774C30.272 274.431 24.9314 276.972 19.6739 279.512C19.1758 279.733 19.6186 280.451 20.089 280.23Z" fill="#E8E8E8"/>
<path id="Vector_7" d="M76.2616 303.122C79.4991 301.742 82.6813 300.223 85.7528 298.511C87.3577 297.6 88.935 296.661 90.5122 295.667C91.9235 294.755 93.3347 293.457 94.8843 292.795C96.6276 292.077 99.2563 293.43 101 293.955C102.854 294.534 104.708 295.087 106.534 295.667C110.325 296.826 114.116 297.986 117.88 299.146C118.378 299.312 118.599 298.511 118.101 298.345C114.061 297.103 109.993 295.86 105.953 294.617C104.016 294.01 102.079 293.43 100.142 292.822C98.6476 292.353 96.7659 291.386 95.1887 291.773C93.7221 292.132 92.3939 293.402 91.1487 294.231C89.5437 295.28 87.8835 296.302 86.2232 297.268C82.875 299.174 79.4161 300.886 75.8465 302.377C75.3484 302.598 75.7912 303.316 76.2616 303.122Z" fill="#E8E8E8"/>
<path id="Vector_8" d="M110.685 303.979C112.788 302.929 114.891 301.852 116.994 300.803C118.931 299.809 121.006 298.483 123.22 298.29C125.461 298.069 127.205 299.533 129.142 300.389C130.774 301.107 132.545 301.521 134.316 301.631C138.467 301.852 142.341 299.781 146.464 300.002C149.757 300.195 153.077 302.902 156.315 301.19C156.785 300.941 156.37 300.223 155.9 300.472C153.88 301.549 151.694 300.499 149.701 299.864C147.986 299.312 146.325 299.063 144.527 299.257C140.265 299.698 136.364 301.493 131.992 300.472C128.367 299.643 125.6 296.633 121.698 297.765C119.899 298.29 118.212 299.284 116.551 300.113C114.448 301.162 112.345 302.239 110.242 303.288C109.8 303.509 110.215 304.227 110.685 303.979Z" fill="#E8E8E8"/>
<path id="Vector_9" d="M126.845 297.986C125.129 296.495 123.58 294.838 122.307 292.933C121.726 292.077 121.2 291.165 120.702 290.254C120.453 289.785 120.232 289.315 120.038 288.846C119.872 288.459 119.706 288.1 119.567 287.714C119.318 287.299 119.429 286.913 119.9 286.554C120.149 286.443 120.398 286.333 120.647 286.222C117.603 281.749 115.694 276.668 115.057 271.311C114.808 271.421 114.587 271.504 114.338 271.615C114.836 272.25 115.334 272.885 115.86 273.548C116.164 273.934 116.745 273.437 116.524 273.05C111.709 264.462 109.135 254.797 109.08 244.967C108.831 245.077 108.61 245.16 108.361 245.27C110.242 246.789 111.681 248.667 112.567 250.904C112.816 250.793 113.065 250.683 113.314 250.572C111.155 246.016 110.713 240.88 111.986 236.02C111.709 236.02 111.46 236.02 111.183 236.02C116.856 252.229 122.501 268.411 128.173 284.621C128.339 285.118 129.142 284.897 128.976 284.4C126.126 276.088 124.714 267.362 124.797 258.553C124.548 258.663 124.327 258.746 124.078 258.857C125.766 260.375 126.817 262.281 127.205 264.518C127.288 264.987 128.035 264.877 128.007 264.407C127.924 262.723 127.814 261.011 127.731 259.326C127.509 259.437 127.315 259.575 127.094 259.685C128.561 260.624 128.837 263.109 129.308 264.656C129.806 266.313 130.304 267.969 130.83 269.654C131.854 273.078 132.905 276.475 133.929 279.899C136.004 286.72 138.08 293.568 140.155 300.389C140.321 300.886 141.123 300.692 140.957 300.168C138.716 292.822 136.502 285.449 134.261 278.104C133.182 274.514 132.075 270.924 130.996 267.334C130.442 265.484 129.889 263.662 129.335 261.811C128.976 260.679 128.561 259.657 127.537 258.995C127.288 258.829 126.9 259.05 126.9 259.354C126.983 261.038 127.094 262.75 127.177 264.435C127.454 264.407 127.731 264.352 127.98 264.324C127.592 261.949 126.43 259.878 124.631 258.277C124.355 258.028 123.94 258.194 123.912 258.58C123.829 267.445 125.24 276.254 128.118 284.648C128.395 284.566 128.644 284.51 128.92 284.428C123.248 268.218 117.603 252.036 111.93 235.826C111.792 235.467 111.238 235.412 111.128 235.826C109.8 240.935 110.298 246.264 112.539 251.014C112.733 251.428 113.48 251.125 113.286 250.683C112.345 248.308 110.879 246.292 108.859 244.69C108.582 244.47 108.139 244.608 108.139 244.994C108.195 254.963 110.796 264.794 115.694 273.492C115.915 273.327 116.136 273.161 116.358 272.995C115.86 272.36 115.361 271.725 114.836 271.062C114.614 270.786 114.089 271.007 114.116 271.366C114.753 276.889 116.69 282.108 119.817 286.692C120.093 287.079 120.647 286.83 120.564 286.361C120.425 285.587 119.512 285.311 118.876 285.781C117.714 286.609 118.848 288.57 119.263 289.509C120.84 293.016 123.192 296.081 126.098 298.594C126.679 298.897 127.26 298.318 126.845 297.986Z" fill="#E8E8E8"/>
<path id="Vector_10" d="M97.9004 236.047C97.5406 230.856 106.976 233.838 109.605 234.335C113.921 235.136 118.211 235.937 122.527 236.738C131.133 238.339 139.766 239.941 148.372 241.543C148.898 241.653 149.119 240.852 148.593 240.742C138.715 238.892 128.864 237.069 118.985 235.219C114.143 234.308 109.3 233.396 104.458 232.513C102.715 232.181 100.695 231.822 99.0626 232.734C97.8173 233.396 96.9872 234.611 97.0979 236.047C97.0979 236.572 97.9557 236.572 97.9004 236.047Z" fill="#E8E8E8"/>
<path id="Vector_11" d="M142.644 240.631C145.522 240.935 147.293 238.201 149.534 236.876C151.444 235.771 153.104 236.627 155.069 237.014C157.255 237.456 159.496 237.511 161.71 237.235C162.235 237.179 162.235 236.351 161.71 236.406C159.219 236.71 156.729 236.6 154.294 235.992C152.827 235.605 151.499 235.136 150.033 235.716C147.431 236.71 145.66 240.134 142.644 239.803C142.119 239.748 142.119 240.576 142.644 240.631Z" fill="#E8E8E8"/>
<path id="Vector_12" d="M195.413 293.734C202.054 291.414 208.751 289.094 215.613 287.437C222.78 285.725 230.002 285.035 237.363 285.256C244.64 285.477 251.862 286.305 259.112 286.968C266.39 287.658 273.667 288.321 280.945 289.012C289.302 289.785 297.686 290.558 306.043 291.359C306.568 291.414 306.568 290.586 306.043 290.53C291.128 289.15 276.213 287.769 261.271 286.361C246.909 285.035 232.465 283.074 218.159 286.029C210.3 287.658 202.718 290.309 195.164 292.933C194.694 293.098 194.915 293.899 195.413 293.734Z" fill="#E8E8E8"/>
<path id="Vector_13" d="M224.663 266.561C229.616 265.512 234.264 263.441 238.941 261.563C243.949 259.575 249.013 258.194 254.381 257.725C259.805 257.255 265.256 257.531 270.652 257.863C276.076 258.194 281.499 258.581 286.95 258.967C293.287 259.437 299.652 259.961 305.988 260.514C306.514 260.569 306.514 259.74 305.988 259.685C294.754 258.691 283.519 257.835 272.257 257.117C261.548 256.427 251.006 256.151 240.795 259.934C235.371 261.95 230.114 264.518 224.414 265.733C223.943 265.871 224.137 266.672 224.663 266.561Z" fill="#E8E8E8"/>
<path id="Vector_14" d="M288.444 234.722C292.401 231.712 296.579 228.757 301.006 226.493C303.165 225.388 305.489 224.504 307.924 224.311C310.553 224.09 313.182 224.615 315.755 224.946C320.985 225.581 326.243 225.968 331.5 226.299C334.987 226.52 339.414 227.017 341.877 223.98C342.209 223.565 341.628 222.986 341.296 223.4C338.501 226.852 332.607 225.554 328.788 225.305C323.531 224.946 318.329 224.449 313.099 223.786C310.857 223.51 308.644 223.289 306.402 223.704C304.189 224.09 302.113 224.974 300.149 226.023C295.887 228.287 291.847 231.104 288.001 234.031C287.614 234.335 288.029 235.053 288.444 234.722Z" fill="#E8E8E8"/>
<path id="Vector_15" d="M136.114 230.165C140.043 227.211 144 224.283 147.929 221.329C151.693 218.512 155.207 215.557 160.132 215.309C164.781 215.088 169.541 215.613 174.162 215.999C179.143 216.413 184.096 216.966 189.021 217.656C193.172 218.236 198.125 219.782 202.054 217.628C202.525 217.38 202.11 216.662 201.639 216.91C199.619 218.015 197.378 218.015 195.137 217.739C192.729 217.435 190.322 217.021 187.914 216.689C183.266 216.054 178.589 215.53 173.885 215.143C169.264 214.756 164.477 214.204 159.856 214.48C155.567 214.729 152.385 216.938 149.036 219.451C144.581 222.765 140.154 226.106 135.699 229.42C135.284 229.779 135.699 230.497 136.114 230.165Z" fill="#E8E8E8"/>
<path id="Vector_16" d="M291.793 259.354C292.042 257.531 292.402 255.764 292.928 253.997C293.177 253.168 293.426 252.34 293.758 251.511C293.951 251.014 294.477 250.186 295.197 250.379C295.556 250.49 295.722 251.732 295.75 251.981C295.805 252.423 296.414 252.561 296.552 252.091C297.853 247.866 299.347 243.227 303.332 240.769C303.111 240.659 302.917 240.521 302.695 240.41C302.695 241.101 302.668 241.819 302.668 242.509C302.668 242.896 303.249 243.089 303.443 242.73C305.905 237.621 308.589 232.264 313.57 229.171C313.377 229.006 313.155 228.868 312.961 228.702C310.471 235.136 307.566 241.404 304.273 247.48C304.051 247.866 304.605 248.363 304.937 247.977C306.791 245.768 308.672 243.558 311.108 241.957C310.914 241.763 310.72 241.57 310.526 241.377C307.455 247.839 304.107 254.135 300.426 260.265C300.15 260.734 300.869 261.149 301.146 260.679C304.798 254.549 308.174 248.253 311.246 241.791C311.412 241.46 311.052 240.963 310.665 241.211C308.174 242.868 306.237 245.105 304.328 247.369C304.549 247.535 304.771 247.701 304.992 247.866C308.313 241.736 311.246 235.412 313.764 228.895C313.902 228.564 313.432 228.26 313.155 228.426C308.036 231.601 305.269 237.041 302.723 242.288C302.972 242.371 303.249 242.426 303.498 242.509C303.498 241.819 303.526 241.101 303.526 240.41C303.526 240.107 303.166 239.886 302.889 240.051C298.739 242.619 297.106 247.424 295.75 251.87C296.027 251.898 296.303 251.953 296.552 251.981C296.414 250.572 295.141 248.17 293.592 249.965C292.817 250.876 292.512 252.367 292.18 253.5C291.627 255.322 291.24 257.2 290.963 259.105C290.935 259.658 291.71 259.878 291.793 259.354Z" fill="#E8E8E8"/>
<path id="Vector_17" d="M98.4539 212.741C100.612 211.581 102.798 210.421 105.178 209.786C107.697 209.123 110.187 209.344 112.705 209.676C117.714 210.338 122.722 211.001 127.703 211.664C128.229 211.747 128.229 210.918 127.703 210.835C122.362 210.117 116.994 209.344 111.654 208.709C109.191 208.405 106.839 208.405 104.459 209.096C102.19 209.758 100.087 210.891 98.0112 211.995C97.5407 212.299 97.9835 212.989 98.4539 212.741Z" fill="#E8E8E8"/>
<path id="Vector_18" d="M266.778 25.4328C268.771 23.7484 271.565 24.0797 273.751 25.1567C275.412 25.9575 276.768 27.5868 278.705 27.6696C280.503 27.7248 281.997 26.5098 283.519 25.709C284.543 25.1843 285.595 24.8253 286.757 25.0738C288.002 25.3224 289.081 26.0403 290.216 26.5374C293.951 28.1667 296.442 25.9023 299.596 24.1073C300.482 23.6103 301.423 23.1685 302.446 23.0856C303.747 22.9752 304.909 23.5551 306.071 24.0521C307.898 24.8253 309.281 25.1291 311.135 24.3835C313.044 23.6379 314.594 23.7484 316.503 24.4387C317.721 24.8805 318.883 25.4328 320.156 25.709C322.065 26.1508 324.113 26.0403 325.552 24.5768C325.939 24.1902 325.33 23.6103 324.971 23.9969C323.117 25.8747 320.294 24.991 318.164 24.1626C316.005 23.3341 313.792 22.4505 311.495 23.3065C310.056 23.8588 309.087 24.2454 307.538 23.7207C306.486 23.3618 305.518 22.7819 304.439 22.4781C302.806 21.981 301.284 22.2572 299.79 23.0028C298.074 23.8588 296.58 25.2119 294.781 25.9299C292.402 26.8688 290.548 25.6261 288.389 24.7149C286.812 24.0521 285.318 23.9417 283.741 24.632C281.831 25.4881 279.977 27.3658 277.736 26.565C276.546 26.1508 275.605 25.1843 274.526 24.5768C273.613 24.0797 272.617 23.7207 271.593 23.5274C269.628 23.1685 267.719 23.4998 266.169 24.7977C265.782 25.2119 266.391 25.7918 266.778 25.4328Z" fill="#E8E8E8"/>
<path id="Vector_19" d="M282.274 47.3034C283.575 44.9561 286.646 46.0883 288.555 46.8615C290.465 47.6347 292.18 48.1042 294.2 47.4138C295.861 46.8339 297.355 45.7293 299.07 45.3427C301.45 44.7905 302.806 46.8063 304.964 47.2758C308.34 48.0213 311.744 44.2658 314.926 45.8398C315.812 46.2816 316.42 46.8615 317.472 46.7787C318.44 46.7235 319.326 46.254 320.267 46.0331C322.895 45.4256 325.635 45.895 327.987 47.1929C328.457 47.4414 328.872 46.7235 328.402 46.4749C326.908 45.6465 325.303 45.1494 323.615 44.9838C322.757 44.9009 321.872 44.9285 321.014 45.0666C319.99 45.2047 319.049 45.6465 318.053 45.8398C316.697 46.0883 316.116 45.4256 315.009 44.9561C314.456 44.7352 313.847 44.6248 313.266 44.6524C311.882 44.7076 310.554 45.2875 309.281 45.757C307.649 46.3645 305.905 46.9444 304.245 46.1159C302.834 45.4256 301.727 44.3762 300.067 44.3762C296.635 44.4039 294.228 47.69 290.603 46.6959C287.919 45.9503 283.602 43.3269 281.61 46.8615C281.306 47.3586 282.025 47.7728 282.274 47.3034Z" fill="#E8E8E8"/>
<path id="Vector_20" d="M255.433 80.3577C257.398 78.8113 259.639 78.8942 261.797 79.8883C262.987 80.4406 264.26 80.9653 265.505 80.2197C266.225 79.7778 266.695 79.0875 267.553 78.839C268.466 78.5628 269.435 78.7561 270.32 78.977C271.897 79.3636 273.419 80.054 275.052 80.1644C276.989 80.3025 278.76 79.4741 280.642 79.2808C282.662 79.0875 284.073 80.3025 285.954 80.5786C287.781 80.8272 289.192 79.3636 291.018 79.6398C293.232 79.9711 295.418 80.7167 297.604 81.269C298.13 81.4071 298.351 80.6063 297.825 80.4682C295.529 79.8883 293.149 79.0046 290.797 78.7561C288.805 78.5352 287.366 80.1644 285.373 79.5569C283.519 79.0046 282.191 78.2038 280.199 78.48C278.068 78.7837 276.131 79.6121 273.945 79.1427C272.257 78.7837 270.625 77.9829 268.881 77.8725C268.245 77.8448 267.581 77.9001 266.972 78.1486C266.197 78.4524 265.782 79.0875 265.063 79.5017C263.402 80.4682 261.161 78.4247 259.39 78.2867C257.702 78.1486 256.153 78.7285 254.824 79.7502C254.409 80.1092 255.018 80.6891 255.433 80.3577Z" fill="#E8E8E8"/>
<path id="Vector_21" d="M99.2286 20.7384C99.7267 18.2807 102.992 19.8547 104.182 20.6003C105.538 21.4563 106.977 22.2295 108.637 21.7601C110.436 21.2354 111.653 19.689 113.646 19.5786C115.527 19.4957 117.354 20.3518 119.125 20.904C120.647 21.3735 122.252 21.7049 123.829 21.3183C125.683 20.8764 127.26 19.5786 129.142 19.2472C132.85 18.612 136.198 21.622 139.961 20.4622C140.459 20.2965 140.265 19.4957 139.74 19.6614C135.81 20.904 132.075 17.4246 128.09 18.6673C126.042 19.3024 124.327 20.7384 122.085 20.6555C120.01 20.5727 118.129 19.5786 116.164 19.0815C114.614 18.6949 113.037 18.5844 111.543 19.2748C110.685 19.6614 109.938 20.2965 109.08 20.7107C107.669 21.3735 106.479 20.9869 105.206 20.2689C103.822 19.4681 102.632 18.5292 100.944 18.6673C99.7543 18.7501 98.7028 19.3576 98.4814 20.5727C98.3431 21.0421 99.1456 21.263 99.2286 20.7384Z" fill="#E8E8E8"/>
<path id="Vector_22" d="M101.747 181.978C105.04 180.598 108.36 183.055 111.68 183.221C113.396 183.304 115.056 182.89 116.744 182.558C118.875 182.144 120.701 182.116 122.749 182.972C123.994 183.497 125.128 183.828 126.401 183.331C127.121 183.055 127.73 182.586 128.449 182.337C129.251 182.061 130.082 182.006 130.939 182.006C133.9 182.061 136.861 183.083 139.683 181.757C140.154 181.536 139.739 180.819 139.268 181.039C136.252 182.448 132.904 180.901 129.722 181.233C128.2 181.398 127.204 182.282 125.793 182.696C124.105 183.193 122.444 181.757 120.784 181.509C117.214 180.957 113.839 182.945 110.241 182.227C107.364 181.647 104.458 179.962 101.525 181.205C101.055 181.398 101.276 182.199 101.747 181.978Z" fill="#E8E8E8"/>
<path id="Vector_23" d="M103.684 53.489C101.276 58.3768 98.8411 63.2645 96.4337 68.1523C106.396 81.49 116.357 94.8001 126.319 108.137C128.893 104.244 131.438 100.267 134.012 96.2637C140.072 86.7643 145.855 77.3755 151.389 68.0694C149.508 63.2921 147.598 58.4872 145.717 53.71C144.499 53.0748 143.282 52.4673 142.064 51.8322C130.276 51.8598 118.488 51.8874 106.728 51.915C105.676 52.4673 104.68 52.992 103.684 53.489Z" fill="white"/>
<path id="Vector_24" d="M96.7658 68.3732C98.8688 63.7616 101.027 59.1776 103.241 54.6213C103.462 54.1518 102.77 53.71 102.521 54.207C100.308 58.7634 98.1493 63.3474 96.0463 67.959C95.8249 68.4284 96.5444 68.8703 96.7658 68.3732Z" fill="black"/>
<path id="Vector_25" d="M96.2123 68.8702C105.953 82.208 115.887 95.38 126.015 108.441C126.347 108.855 126.927 108.276 126.595 107.861C116.522 94.8554 106.645 81.7385 96.9318 68.456C96.6274 68.0418 95.908 68.456 96.2123 68.8702Z" fill="black"/>
<path id="Vector_26" d="M103.435 54.1518C104.597 53.5443 105.731 52.9091 106.894 52.3016C107.364 52.0531 106.948 51.3351 106.478 51.5837C105.316 52.1912 104.182 52.8263 103.019 53.4338C102.521 53.71 102.964 54.4003 103.435 54.1518Z" fill="black"/>
<path id="Vector_27" d="M107.586 52.3568C116.219 52.3568 124.88 52.3568 133.514 52.3568C134.039 52.3568 134.039 51.5284 133.514 51.5284C124.88 51.5284 116.219 51.5284 107.586 51.5284C107.06 51.5284 107.06 52.3568 107.586 52.3568Z" fill="black"/>
<path id="Vector_28" d="M151.776 67.9865C150.032 63.375 148.234 58.8186 146.38 54.2346C146.186 53.7376 145.384 53.9585 145.577 54.4555C147.431 59.0119 149.23 63.5959 150.973 68.2075C151.167 68.7045 151.969 68.4836 151.776 67.9865Z" fill="black"/>
<path id="Vector_29" d="M150.863 68.4008C142.756 81.6557 134.482 94.8278 126.042 107.889C125.738 108.331 126.457 108.745 126.762 108.303C135.202 95.242 143.475 82.0975 151.583 68.815C151.86 68.3732 151.14 67.9314 150.863 68.4008Z" fill="black"/>
<path id="Vector_30" d="M145.883 53.3787C144.914 52.7711 143.946 52.136 142.977 51.5285C142.534 51.2523 142.119 51.9427 142.562 52.2465C143.531 52.854 144.499 53.4891 145.468 54.0966C145.938 54.4004 146.353 53.6824 145.883 53.3787Z" fill="black"/>
<path id="Vector_31" d="M142.035 51.4456C134.813 51.4456 127.591 51.4456 120.396 51.4456C119.871 51.4456 119.871 52.2741 120.396 52.2741C127.619 52.2741 134.841 52.2741 142.035 52.2741C142.561 52.2741 142.561 51.4456 142.035 51.4456Z" fill="black"/>
<path id="Vector_32" d="M97.098 68.7874C102.051 66.6611 107.004 64.5348 111.957 62.4085C112.455 62.1876 112.012 61.4972 111.542 61.6905C106.589 63.8168 101.636 65.9431 96.6829 68.0694C96.2125 68.2904 96.6275 69.0083 97.098 68.7874Z" fill="black"/>
<path id="Vector_33" d="M103.573 53.9033C106.616 54.3727 109.605 55.0355 112.565 55.8639C113.091 56.002 113.313 55.2012 112.787 55.0631C109.826 54.207 106.838 53.5719 103.794 53.1025C103.268 53.0196 103.019 53.8204 103.573 53.9033Z" fill="black"/>
<path id="Vector_34" d="M112.344 55.7259C113.008 57.797 113.589 59.868 114.087 61.9943C114.198 62.519 115.001 62.2981 114.89 61.7734C114.392 59.6471 113.811 57.576 113.147 55.505C112.981 55.0079 112.178 55.2012 112.344 55.7259Z" fill="black"/>
<path id="Vector_35" d="M113.618 55.8087C121.034 55.8087 128.422 55.8087 135.838 55.8087C136.364 55.8087 136.364 54.9802 135.838 54.9802C128.422 54.9802 121.034 54.9802 113.618 54.9802C113.092 54.9802 113.092 55.8087 113.618 55.8087Z" fill="black"/>
<path id="Vector_36" d="M135.477 55.9744C135.201 57.4932 134.924 59.0396 134.647 60.5584C134.564 61.0831 135.367 61.304 135.45 60.7793C135.726 59.2605 136.003 57.7141 136.28 56.1953C136.363 55.6706 135.56 55.4497 135.477 55.9744Z" fill="black"/>
<path id="Vector_37" d="M114.53 62.0495C121.005 62.0495 127.48 62.0495 133.983 62.0495C134.509 62.0495 134.509 61.221 133.983 61.221C127.508 61.221 121.033 61.221 114.53 61.221C114.004 61.221 114.004 62.0495 114.53 62.0495Z" fill="black"/>
<path id="Vector_38" d="M136.64 55.8087C139.656 55.1736 142.645 54.5384 145.661 53.9033C146.187 53.7929 145.965 52.992 145.439 53.1025C142.423 53.7376 139.434 54.3728 136.418 55.0079C135.892 55.1183 136.114 55.9192 136.64 55.8087Z" fill="black"/>
<path id="Vector_39" d="M135.256 61.801C138.051 62.2428 140.652 63.8168 143.198 65.0042C145.909 66.2745 148.593 67.5448 151.305 68.815C151.776 69.0359 152.218 68.318 151.72 68.097C148.843 66.7439 145.992 65.4185 143.115 64.0654C140.68 62.9056 138.161 61.442 135.477 61.0002C134.952 60.9173 134.73 61.7181 135.256 61.801Z" fill="black"/>
<path id="Vector_40" d="M114.779 63.3198C118.377 78.1211 121.946 92.95 125.543 107.751C125.682 108.276 126.456 108.055 126.346 107.53C122.749 92.7291 119.179 77.9002 115.582 63.0989C115.443 62.5742 114.641 62.7951 114.779 63.3198Z" fill="black"/>
<path id="Vector_41" d="M134.095 64.3139C130.719 78.5629 127.924 92.9776 125.766 107.475C125.683 107.999 126.485 108.22 126.568 107.696C128.726 93.1985 131.521 78.8114 134.897 64.5348C135.036 64.0101 134.233 63.7892 134.095 64.3139Z" fill="black"/>
<path id="Vector_42" d="M134.37 36.672C135.616 33.4963 136.307 30.155 136.418 26.7308C136.446 26.2061 135.616 26.2061 135.588 26.7308C135.477 30.0721 134.786 33.3306 133.568 36.4511C133.374 36.9481 134.177 37.1414 134.37 36.672Z" fill="black"/>
<path id="Vector_43" d="M140.043 37.2242C142.699 34.2142 145.688 31.5632 149.036 29.3265C149.479 29.0227 149.064 28.3048 148.621 28.6085C145.218 30.8729 142.146 33.5791 139.462 36.6443C139.102 37.0309 139.683 37.6108 140.043 37.2242Z" fill="black"/>
<path id="Vector_44" d="M145.495 42.3329C148.927 41.3112 152.468 40.9246 156.038 41.2007C156.564 41.2283 156.564 40.3999 156.038 40.3723C152.385 40.0961 148.788 40.4827 145.274 41.5321C144.776 41.6978 144.97 42.4986 145.495 42.3329Z" fill="black"/>
<path id="Vector_45" d="M87.1916 22.9752C87.5236 28.4428 84.4521 33.662 79.5266 36.0368C79.2499 36.1749 79.2776 36.5891 79.5266 36.7548C84.037 39.461 86.1124 44.4316 87.3023 49.3193C87.4406 49.844 88.2154 49.6231 88.1047 49.0984C86.8595 43.9897 84.6458 38.8258 79.9417 36.0368C79.9417 36.2853 79.9417 36.5062 79.9417 36.7548C85.1162 34.2419 88.3814 28.6914 88.0217 22.9752C87.994 22.4505 87.1639 22.4505 87.1916 22.9752Z" fill="#E8E8E8"/>
<path id="Vector_46" d="M87.4959 22.9752C87.1362 28.719 90.4014 34.2695 95.5759 36.7548C95.5759 36.5062 95.5759 36.2853 95.5759 36.0368C90.8441 38.8534 88.6304 44.0173 87.3852 49.1536C87.2469 49.6783 88.0493 49.8992 88.1877 49.3745C89.3776 44.4592 91.4529 39.461 95.991 36.7548C96.24 36.6167 96.2677 36.1749 95.991 36.0368C91.0655 33.6619 87.9663 28.4428 88.2984 22.9752C88.3537 22.4505 87.5236 22.4505 87.4959 22.9752Z" fill="#E8E8E8"/>
<path id="Vector_47" d="M222.228 230.276C223.196 229.862 224.524 229.254 226.046 228.398C228.592 226.99 229.865 226.272 230.64 225.14C231.636 223.648 231.248 222.848 232.549 221.356C232.743 221.108 233.656 220.141 234.846 219.617C236.893 218.761 238.803 219.782 241.985 220.915C244.918 221.964 247.215 222.461 251.808 223.483C253.634 223.897 255.848 224.311 259.058 225.305C259.971 225.581 260.691 225.83 261.189 225.996C261.244 226.576 261.272 228.067 260.303 229.42C259.86 230.027 259.252 230.524 258.283 230.966C256.042 232.016 253.911 231.822 252.112 231.739C248.238 231.574 249.843 232.126 240.712 232.292C238.72 232.319 237.087 232.319 235.952 232.319C234.541 233.286 233.13 234.28 231.691 235.302C229.256 237.069 226.932 238.836 224.718 240.576C223.888 237.152 223.058 233.7 222.228 230.276Z" fill="black"/>
<path id="Vector_48" d="M210.689 194.93C208.696 195.979 208.475 196.365 201.059 202.662C189.493 212.465 188.22 212.989 177.732 222.13C167.688 230.856 165.806 233.037 163.897 235.909C159.137 243.172 158.086 249.247 157.781 252.202C157.366 256.178 156.813 261.701 160.327 266.064C162.541 268.798 165.419 269.93 166.387 270.289C169.293 271.394 171.672 271.256 175.961 270.952C181.662 270.538 186.006 269.433 187.722 268.964C189.603 268.439 193.975 267.141 199.454 264.435C204.601 261.894 206.815 260.017 213.843 255.295C216.97 253.196 221.591 250.131 227.402 246.596C227.762 243.835 227.458 241.681 227.153 240.328C226.434 237.124 224.967 234.915 223.335 232.485C222.006 230.497 220.733 228.978 219.848 227.984C221.923 226.41 224.635 224.146 227.485 221.108C229.395 219.064 232.411 215.806 234.929 211.222C238.028 205.589 241.127 199.9 239.135 195.979C236.008 189.821 221.121 189.545 210.689 194.93Z" fill="white"/>
<path id="Vector_49" opacity="0.18" d="M235.481 197.94C233.904 201.585 231.303 206.748 227.152 212.271C221.12 220.252 215.032 224.67 205.845 231.215C179.862 249.716 172.889 253.941 173.664 255.709C174.715 258.111 189.353 253.803 191.484 253.168C207.035 248.584 218.491 241.515 225.658 236.351C223.832 233.562 222.005 230.773 220.179 228.012C222.42 226.41 225.52 223.869 228.425 220.086C230.03 218.015 232.465 214.812 234.042 209.979C235.647 205.174 235.703 200.894 235.481 197.94Z" fill="#9B9797"/>
<path id="Vector_50" d="M210.578 194.902C200.727 202.22 191.125 209.897 181.883 217.932C177.456 221.771 173.028 225.609 168.878 229.724C165.197 233.369 161.766 237.401 159.691 242.205C157.532 247.176 156.924 252.92 157.449 258.305C157.892 262.751 159.525 267.224 163.592 269.544C167.854 271.946 173.222 271.698 177.926 271.201C183.709 270.621 189.41 269.212 194.805 267.031C206.842 262.143 216.278 253.003 227.651 246.955C228.122 246.707 227.707 245.989 227.236 246.237C217.745 251.291 209.665 258.581 200.146 263.634C195.165 266.285 189.797 268.218 184.263 269.406C179.144 270.483 173.388 271.311 168.186 270.317C165.751 269.847 163.399 268.853 161.655 267.031C159.967 265.236 159.054 262.889 158.584 260.486C157.56 255.267 158.03 249.358 159.746 244.332C161.462 239.306 164.81 235.081 168.462 231.325C172.253 227.432 176.404 223.842 180.472 220.28C190.295 211.664 200.478 203.435 210.993 195.648C211.408 195.316 211.021 194.598 210.578 194.902Z" fill="black"/>
<path id="Vector_51" d="M183.459 251.511C192.535 248.004 200.754 242.758 208.557 237.014C212.403 234.197 216.194 231.27 219.958 228.343C223.666 225.443 227.207 222.378 230.085 218.65C230.417 218.236 229.698 217.822 229.366 218.236C226.433 222.047 222.752 225.112 218.989 228.067C215.281 230.966 211.546 233.838 207.727 236.627C200.09 242.205 192.093 247.342 183.238 250.738C182.74 250.904 182.961 251.705 183.459 251.511Z" fill="black"/>
<path id="Vector_52" d="M219.543 228.26C224.883 232.734 227.706 239.665 226.958 246.596C226.903 247.121 227.734 247.121 227.79 246.596C228.537 239.472 225.603 232.292 220.124 227.68C219.736 227.321 219.155 227.901 219.543 228.26Z" fill="black"/>
<g id="color">
<path id="Vector_53" d="M196.299 52.4397C195.33 54.4003 194.362 57.6864 194.057 58.7633C193.615 60.3098 192.618 63.9272 192.065 68.7321C191.761 71.3831 191.429 74.2826 191.705 78.121C191.844 79.9436 192.037 82.8155 193.116 86.3777C193.836 88.8078 194.887 92.3148 197.738 95.9047C200.228 99.0251 203.078 100.985 205.347 102.173C206.786 102.2 208.529 102.118 210.466 101.759C213.953 101.096 216.665 99.7983 218.491 98.749C218.74 100.157 219.072 101.648 219.487 103.194C220.345 106.398 221.396 109.214 222.448 111.644C223.582 111.451 224.938 111.12 226.377 110.457C230.943 108.331 233.129 104.41 233.904 102.78C233.489 101.179 233.157 99.4393 232.852 97.6444C231.801 90.9341 232.078 84.9418 232.742 80.0816C233.323 80.2749 234.264 80.5235 235.426 80.4682C237.695 80.3302 239.244 79.0875 240.019 78.4248C240.683 77.8725 243.699 75.1939 243.589 71.2174C243.561 70.2785 243.506 67.9865 241.873 66.7439C240.351 65.6117 238.304 66.0259 236.809 66.3297C235.094 66.6887 233.821 67.4066 233.046 67.9037C233.627 65.9983 234.845 61.1106 233.046 55.422C232.659 54.207 230.085 46.4749 222.503 43.1336C212.21 38.5496 199.841 45.3428 196.299 52.4397Z" fill="white"/>
<path id="Vector_54" d="M276.739 44.2934C277.265 44.2934 277.265 43.4649 276.739 43.4649C276.213 43.4649 276.213 44.2934 276.739 44.2934Z" fill="#E8E8E8"/>
<path id="Vector_55" d="M96.7936 20.1033C97.3194 20.1033 97.3194 19.2749 96.7936 19.2749C96.2678 19.2749 96.2678 20.1033 96.7936 20.1033Z" fill="#E8E8E8"/>
<path id="Vector_56" d="M41.9216 141.302C44.3362 141.302 46.2937 139.349 46.2937 136.939C46.2937 134.53 44.3362 132.576 41.9216 132.576C39.507 132.576 37.5496 134.53 37.5496 136.939C37.5496 139.349 39.507 141.302 41.9216 141.302Z" fill="#0A3871"/>
<path id="Vector_57" d="M296.414 111.313C298.11 111.313 299.486 109.941 299.486 108.248C299.486 106.555 298.11 105.183 296.414 105.183C294.718 105.183 293.343 106.555 293.343 108.248C293.343 109.941 294.718 111.313 296.414 111.313Z" fill="#0A3871"/>
<path id="Vector_58" d="M268.77 4.52875C270.023 4.52875 271.039 3.51496 271.039 2.26438C271.039 1.0138 270.023 0 268.77 0C267.516 0 266.501 1.0138 266.501 2.26438C266.501 3.51496 267.516 4.52875 268.77 4.52875Z" fill="#0A3871"/>
<path id="Vector_59" d="M168.822 200.894C170.381 200.894 171.645 199.633 171.645 198.077C171.645 196.522 170.381 195.261 168.822 195.261C167.263 195.261 166 196.522 166 198.077C166 199.633 167.263 200.894 168.822 200.894Z" fill="#0A3871"/>
<path id="Vector_60" d="M38.7117 40.9245C40.4997 40.9245 41.9492 39.478 41.9492 37.6936C41.9492 35.9092 40.4997 34.4627 38.7117 34.4627C36.9236 34.4627 35.4741 35.9092 35.4741 37.6936C35.4741 39.478 36.9236 40.9245 38.7117 40.9245Z" fill="#0A3871"/>
<path id="Vector_61" d="M150.338 154.281C151.362 154.281 152.192 153.453 152.192 152.431C152.192 151.409 151.362 150.581 150.338 150.581C149.314 150.581 148.484 151.409 148.484 152.431C148.484 153.453 149.314 154.281 150.338 154.281Z" fill="#0A3871"/>
<path id="Vector_62" d="M325.33 170.021C326.889 170.021 328.153 168.76 328.153 167.205C328.153 165.649 326.889 164.388 325.33 164.388C323.772 164.388 322.508 165.649 322.508 167.205C322.508 168.76 323.772 170.021 325.33 170.021Z" fill="#0A3871"/>
<path id="Vector_63" d="M17.6816 216.579C18.8431 216.579 19.7846 215.639 19.7846 214.48C19.7846 213.321 18.8431 212.382 17.6816 212.382C16.5202 212.382 15.5786 213.321 15.5786 214.48C15.5786 215.639 16.5202 216.579 17.6816 216.579Z" fill="#0A3871"/>
<path id="Vector_64" d="M199.093 112.584C203.299 109.104 209.581 104.907 217.965 102.421C221.894 101.262 226.82 99.8264 233.35 100.378C243.367 101.234 250.257 106.149 252.693 107.944C256.511 110.733 259.112 113.688 260.717 115.759C261.022 135.117 261.437 154.502 261.962 173.86C262.128 179.825 262.294 185.817 262.488 191.782C258.559 194.212 253.052 196.945 246.079 198.547C229.753 202.275 216.167 197.304 210.66 194.902C210.632 190.014 210.328 182.669 208.834 173.86C206.399 159.39 202.608 153.563 200.228 141.109C199.038 134.675 197.904 125.01 199.093 112.584Z" fill="#0A3871"/>
<path id="Vector_65" d="M194.28 57.935C193.726 56.0296 192.951 52.3845 193.754 47.911C194.003 46.5302 194.861 42.0843 197.905 38.5773C202.36 33.4686 207.949 34.4351 215.199 31.8394C219.792 30.2102 226.101 26.786 232.494 18.7226C231.912 21.7049 231.331 24.7149 230.75 27.6972C231.746 27.9734 235.095 28.6914 238.526 27.0069C244.226 24.2178 244.724 17.4799 244.752 17.1762C245.444 18.7226 246.689 22.1468 246.135 26.5098C245.748 29.4922 244.669 31.7289 243.894 33.082C244.226 33.441 245.997 35.2636 248.045 34.9874C250.535 34.6561 252.86 31.2595 252.195 26.8688C252.749 28.4981 253.413 31.1767 253.247 34.4628C253.026 38.4668 251.697 41.4768 250.812 43.1061C251.033 43.2994 252.444 44.5696 254.437 44.3211C256.18 44.1002 257.674 42.8299 258.255 41.035C258.117 42.8851 257.785 45.5637 256.706 48.6289C255.239 52.7711 254.022 53.1025 253.413 56.0572C252.444 60.6964 254.935 62.2704 254.271 66.4126C253.717 69.892 251.448 72.0735 248.571 74.8626C243.341 79.916 237.336 82.6498 232.3 84.1686C232.521 82.6222 232.77 81.0758 232.992 79.5294C233.628 79.916 234.735 80.4407 236.118 80.3855C238.941 80.275 240.712 77.7621 241.653 76.409C242.732 74.8902 244.531 72.2945 243.562 69.5054C242.76 67.241 240.629 66.3021 240.435 66.2193C237.945 65.1699 234.735 66.1088 232.66 68.6494C231.497 64.093 230.363 59.5642 229.201 55.0079C225.271 52.5226 221.37 50.0649 217.44 47.5796C215.503 47.2206 210.218 46.5026 204.297 49.126C198.32 51.777 195.276 56.2781 194.28 57.935Z" fill="#0A3871"/>
</g>
<path id="Vector_66" d="M226.904 238.892C228.481 238.422 229.865 237.097 231.193 236.158C232.853 234.998 234.486 233.838 236.146 232.678C236.589 232.375 236.174 231.657 235.731 231.96C234.237 233.01 232.715 234.087 231.221 235.136C229.837 236.103 228.315 237.594 226.683 238.091C226.157 238.229 226.378 239.03 226.904 238.892Z" fill="black"/>
<path id="Vector_67" d="M222.337 230.662C225.464 229.365 228.342 227.597 230.943 225.416C231.358 225.057 230.749 224.477 230.362 224.836C227.899 226.935 225.132 228.619 222.144 229.862C221.645 230.083 221.867 230.883 222.337 230.662Z" fill="black"/>
<path id="Vector_68" d="M230.639 225.057C231.164 225.057 231.164 224.228 230.639 224.228C230.113 224.228 230.113 225.057 230.639 225.057Z" fill="black"/>
<path id="Vector_69" d="M231.635 224.063C232.105 222.958 232.603 221.743 233.489 220.887C234.679 219.727 236.118 219.893 237.639 220.224C240.462 220.859 243.229 221.743 245.996 222.544C248.57 223.262 251.143 223.897 253.799 224.201C255.349 224.366 256.65 224.56 258.033 225.25C259.057 225.747 259.942 226.244 261.077 226.355C261.603 226.41 261.603 225.582 261.077 225.526C259.555 225.388 258.365 224.339 256.926 223.869C255.487 223.4 253.882 223.428 252.388 223.179C249.123 222.654 245.941 221.66 242.786 220.721C241.237 220.28 239.687 219.838 238.11 219.479C236.948 219.23 235.73 218.926 234.568 219.285C232.548 219.893 231.579 222.047 230.832 223.842C230.639 224.339 231.441 224.56 231.635 224.063Z" fill="black"/>
<path id="Vector_70" d="M236.035 233.286C241.956 232.402 247.822 232.264 253.799 232.154C255.875 232.126 258.088 231.878 259.749 230.524C261.16 229.365 261.962 227.68 261.575 225.885C261.464 225.361 260.662 225.581 260.773 226.106C261.298 228.619 259.029 230.469 256.788 231.022C254.491 231.574 252.001 231.298 249.649 231.353C245 231.436 240.407 231.822 235.813 232.513C235.287 232.568 235.536 233.369 236.035 233.286Z" fill="black"/>
<path id="Vector_71" d="M257.038 227.79C259.086 226.327 261.161 224.863 263.209 223.4C263.347 222.461 263.79 220.417 265.478 218.678C265.976 218.153 267.138 216.938 268.881 216.607C270.708 216.248 272.119 217.076 273.696 217.794C276.242 218.954 278.704 219.396 283.575 220.335C287.421 221.053 289.358 221.412 292.125 221.273C295.888 221.053 298.572 220.058 300.177 221.632C300.343 221.798 301.035 222.544 300.98 223.455C300.897 224.615 299.652 225.36 298.655 225.94C294.311 228.426 291.876 229.144 291.876 229.144C285.733 230.938 282.634 231.85 279.977 232.071C277.819 232.236 274.747 232.319 271.04 231.739C269.96 235.44 266.695 237.814 263.624 237.621C259.667 237.373 256.014 232.927 257.038 227.79Z" fill="black"/>
<path id="Vector_72" d="M217.302 203.379C217.911 201.529 219.045 199.182 221.176 198.409C222.56 197.912 223.832 198.243 224.248 198.354C226.821 198.989 232.106 198.077 242.649 196.282C247.879 195.399 254.492 194.101 262.102 192.168C262.129 193.576 262.102 195.426 262.019 197.58C261.825 202.413 261.327 206.058 261.216 206.914C260.746 210.338 259.916 216.027 257.398 222.93C256.761 224.698 256.125 226.161 255.682 227.155C256.761 227.652 257.923 228.315 259.058 229.254C263.734 232.982 265.09 238.256 265.533 240.493C264.869 241.294 263.873 242.481 262.6 243.834C257.453 249.302 252.694 252.367 243.617 257.973C238.028 261.425 233.932 263.938 227.374 267.804C219.405 272.498 212.958 276.143 204.933 278.435C202.941 279.015 199.786 279.788 195.802 279.374C193.865 279.181 190.378 278.822 187.03 276.392C182.741 273.299 181.385 268.77 180.831 266.782C179.586 262.336 180.057 258.166 181.219 253.831C182.021 250.793 184.927 240.714 195.027 229.364C197.047 227.1 202.802 221.991 214.258 211.774C217.025 209.316 219.294 207.301 220.816 205.975C219.654 205.091 218.492 204.235 217.302 203.379Z" fill="white"/>
<path id="Vector_73" opacity="0.18" d="M254.934 195.73C254.297 198.16 253.274 201.667 251.724 205.782C237.584 243.172 205.983 259.326 208.557 263.358C210.439 266.34 228.48 258.912 241.486 251.097C251.226 245.243 258.476 238.974 263.318 234.252C262.543 233.12 261.354 231.574 259.555 230.11C257.812 228.702 256.151 227.846 254.906 227.321C255.764 226.078 256.899 224.201 257.867 221.798C258.503 220.252 259.057 218.595 259.776 215.226C260.939 209.896 261.409 205.671 261.547 204.346C261.879 201.17 262.184 197.056 262.128 192.195C259.721 193.355 257.341 194.543 254.934 195.73Z" fill="#9B9797"/>
<path id="Vector_74" d="M261.713 192.168C261.741 197.387 261.41 202.606 260.691 207.798C260.026 212.464 259.195 217.269 257.48 221.688C255.626 226.465 252.443 229.944 248.597 233.23C244.668 236.572 240.711 239.858 236.754 243.144C232.216 246.927 227.65 250.683 223.112 254.466C222.697 254.797 223.278 255.377 223.693 255.046C232.022 248.142 240.351 241.266 248.625 234.28C252.277 231.187 255.598 227.984 257.59 223.538C259.527 219.23 260.468 214.508 261.215 209.869C262.156 204.014 262.599 198.105 262.543 192.168C262.543 191.616 261.713 191.616 261.713 192.168Z" fill="black"/>
<path id="Vector_75" d="M217.771 204.153C218.906 204.76 220.041 205.368 221.203 205.975C221.673 206.224 222.088 205.506 221.618 205.257C220.483 204.65 219.349 204.042 218.187 203.435C217.716 203.186 217.301 203.904 217.771 204.153Z" fill="black"/>
<path id="Vector_76" d="M221.203 205.644C211.352 213.652 201.003 221.577 192.784 231.298C185.701 239.665 179.862 250.269 179.89 261.508C179.89 266.451 181.246 271.615 184.898 275.122C188.551 278.656 193.836 280.037 198.817 279.788C204.904 279.485 210.688 277.082 216.111 274.431C221.922 271.587 227.429 268.218 232.963 264.877C244.363 257.973 257.092 251.539 265.643 241.018C265.975 240.604 265.394 240.024 265.062 240.438C257.895 249.275 247.822 254.935 238.22 260.734C232.935 263.938 227.705 267.196 222.31 270.234C217.024 273.216 211.518 276.06 205.679 277.745C200.2 279.319 194.085 279.65 188.91 276.917C183.93 274.321 181.384 269.295 180.858 263.827C179.834 252.782 185.396 241.791 192.12 233.396C200.505 222.93 211.462 214.591 221.811 206.196C222.199 205.892 221.618 205.312 221.203 205.644Z" fill="black"/>
<path id="Vector_77" d="M255.487 227.487C260.69 229.972 264.314 234.887 265.172 240.576C265.255 241.101 266.058 240.88 265.975 240.355C265.117 234.473 261.298 229.309 255.93 226.769C255.432 226.548 255.017 227.266 255.487 227.487Z" fill="black"/>
<path id="Vector_78" d="M257.149 228.205C258.255 227.763 259.141 227.017 260.082 226.299C261.189 225.443 262.323 224.615 263.43 223.759C263.845 223.427 263.43 222.709 263.015 223.041C262.019 223.786 261.023 224.532 260.026 225.305C259.058 226.051 258.089 226.962 256.927 227.404C256.457 227.597 256.651 228.398 257.149 228.205Z" fill="black"/>
<path id="Vector_79" d="M263.845 223.427C264.398 221.798 265.063 220.196 265.948 218.705C267.166 216.662 268.991 216.883 271.039 217.407C274.221 218.208 277.265 219.423 280.474 220.141C286.7 221.522 293.093 221.991 299.457 221.577C299.983 221.55 299.983 220.721 299.457 220.749C291.958 221.246 284.405 220.473 277.155 218.429C275.412 217.932 273.723 217.297 271.979 216.8C270.651 216.413 269.074 215.971 267.69 216.248C266.445 216.496 265.726 217.435 265.117 218.484C264.259 219.976 263.596 221.577 263.043 223.206C262.877 223.703 263.679 223.924 263.845 223.427Z" fill="black"/>
<path id="Vector_80" d="M265.035 236.765C267.11 235.191 269.158 233.617 271.233 232.043C271.648 231.712 271.233 230.994 270.818 231.325C268.743 232.899 266.695 234.473 264.62 236.047C264.205 236.378 264.62 237.096 265.035 236.765Z" fill="black"/>
<path id="Vector_81" d="M271.206 231.85C277.957 233.313 284.847 232.209 291.24 229.779C294.145 228.674 297.466 227.431 299.956 225.554C301.699 224.256 301.948 221.771 299.652 220.887C299.153 220.694 298.932 221.494 299.43 221.688C300.675 222.157 300.814 223.51 299.956 224.449C299.541 224.919 298.96 225.222 298.406 225.554C297.272 226.189 296.11 226.769 294.947 227.321C292.485 228.481 289.939 229.475 287.31 230.248C282.136 231.739 276.712 232.236 271.399 231.077C270.901 230.938 270.68 231.739 271.206 231.85Z" fill="black"/>
<path id="Vector_82" d="M249.124 117.361C247.768 118.852 247.519 120.536 247.602 126.998C247.657 133.791 248.017 138.43 248.239 143.815C248.405 147.709 248.543 150.802 248.46 154.833C248.377 159.914 248.045 164.084 247.74 166.873C245.029 169.911 242.621 172.286 240.823 173.998C236.783 177.836 232.383 181.978 225.88 185.872C223.307 187.391 221.093 188.495 219.599 189.186C218.243 188.965 216.721 188.633 215.061 188.219C211.131 187.225 209.499 186.341 206.538 186.341C205.653 186.341 202.858 186.341 202.581 187.335C202.332 188.164 203.882 189.462 205.099 190.097C206.234 190.677 206.732 190.511 207.866 191.036C209.139 191.643 209.969 192.527 210.467 193.19C209.942 193.935 209.139 195.067 208.254 196.531C207.23 198.243 207.008 198.906 205.819 200.949C204.573 203.103 203.937 204.18 203.384 204.732C202.526 205.533 202 205.699 198.154 207.411C194.335 209.123 193.671 209.51 193.671 209.979C193.671 210.449 194.418 210.559 197.379 211.829C199.786 212.851 200.008 213.072 201.253 213.431C202.802 213.873 203.743 214.149 204.878 213.9C206.676 213.541 207.839 212.188 208.337 211.47C208.586 211.691 209.194 212.161 209.997 212.188C210.633 212.188 211.159 211.94 211.574 211.608C213.317 210.366 214.175 208.074 215.891 205.506C216.195 205.064 217.274 203.435 219.018 201.612C220.097 200.452 221.093 199.596 221.813 199.016C222.781 198.795 224.22 198.464 225.936 197.967C232.604 196.062 237.419 193.77 241.459 191.837C243.811 190.704 246.468 189.213 251.753 186.258C256.346 183.69 258.726 182.254 260.829 179.438C261.05 179.134 262.185 177.615 263.181 175.378C263.485 174.688 264.565 172.23 265.146 167.923C265.422 166.017 265.422 164.968 265.45 159.003C265.505 151.409 265.505 152.32 265.505 151.547C265.478 140.419 264.897 141.413 264.703 131.195C264.675 130.229 264.648 127.606 263.845 124.292C262.987 120.702 261.908 119.1 261.299 118.3C260.525 117.278 259.584 116.063 257.979 115.372C255.046 114.075 251.144 115.124 249.124 117.361Z" fill="white"/>
<path id="Vector_83" opacity="0.25" d="M258.006 115.345C258.671 117.526 259.473 120.674 260.026 124.485C260.691 129.097 260.94 134.178 259.445 147.46C258.2 158.561 257.591 164.112 255.986 169.303C253.69 176.704 252.029 182.089 246.966 186.341C243.7 189.075 240.131 190.345 232.964 192.858C227.706 194.708 223.196 195.813 220.097 196.503C217.883 199.486 214.59 203.269 209.914 206.859C206.261 209.675 202.747 211.608 199.842 212.934C200.257 213.21 201.972 214.315 204.297 214.011C207.008 213.652 208.475 211.719 208.724 211.36C209.25 211.747 210.025 212.161 210.882 212.023C212.653 211.747 213.594 209.234 214.065 208.101C215.088 205.754 217.136 202.523 221.729 198.989C224.773 198.188 228.896 196.973 233.683 195.15C240.352 192.582 244.835 190.097 249.65 187.418C257.37 183.11 259.113 181.343 260.386 179.631C262.711 176.511 263.679 173.307 264.094 171.899C264.841 169.386 264.98 166.569 265.256 161.074C265.45 156.987 265.45 153.839 265.45 151.464C265.45 147.377 265.367 144.34 265.284 141.717C265.173 137.906 264.952 133.432 264.398 128.075C263.983 124.181 263.679 122.635 262.794 120.895C261.438 118.134 259.418 116.367 258.006 115.345Z" fill="#9B9797"/>
<path id="Vector_84" d="M248.708 117.25C247.269 120.84 247.103 124.706 247.186 128.544C247.269 132.769 247.49 136.967 247.684 141.192C248.072 149.752 248.348 158.34 247.324 166.873C247.269 167.398 248.099 167.398 248.155 166.873C249.151 158.534 248.929 150.111 248.542 141.744C248.348 137.602 248.127 133.46 248.016 129.29C247.905 125.286 247.988 121.254 249.51 117.471C249.704 116.974 248.902 116.753 248.708 117.25Z" fill="black"/>
<path id="Vector_85" d="M248.93 166.155C246.385 167.564 244.337 169.607 242.372 171.733C240.242 174.025 238.111 176.262 235.731 178.306C230.861 182.531 225.382 186.01 219.516 188.716C219.018 188.937 219.46 189.655 219.931 189.434C225.576 186.838 230.861 183.525 235.593 179.521C237.945 177.56 240.103 175.406 242.179 173.169C244.337 170.822 246.495 168.447 249.318 166.901C249.816 166.597 249.401 165.879 248.93 166.155Z" fill="black"/>
<path id="Vector_86" d="M219.709 188.771C216.666 188.136 213.594 187.473 210.55 186.783C209.028 186.452 207.479 186.038 205.929 185.761C204.961 185.596 203.937 185.513 203.079 186.065C201.751 186.921 201.751 188.495 202.941 189.434C203.799 190.124 204.905 190.428 205.929 190.76C207.59 191.284 209.001 191.947 210.08 193.355C210.412 193.77 211.131 193.355 210.799 192.941C209.831 191.698 208.669 190.815 207.174 190.29C206.151 189.931 205.016 189.71 204.075 189.186C203.411 188.827 202.553 188.274 203.051 187.28C203.522 186.341 204.712 186.424 205.57 186.562C207.866 186.894 210.163 187.556 212.46 188.081C214.812 188.606 217.164 189.103 219.516 189.6C220.014 189.683 220.235 188.882 219.709 188.771Z" fill="black"/>
<path id="Vector_87" d="M209.416 193.494C208.198 195.73 206.953 197.939 205.736 200.176C205.127 201.253 204.601 202.413 203.882 203.462C203.134 204.539 202.138 205.092 200.976 205.644C198.79 206.666 196.438 207.494 194.335 208.681C193.394 209.234 192.785 210.228 193.588 211.194C194.584 212.382 196.549 211.912 197.877 211.691C199.703 211.388 201.446 210.78 203.107 210.007C206.566 208.35 209.499 205.754 211.602 202.551C211.906 202.109 211.187 201.695 210.882 202.137C209.028 205.009 206.455 207.328 203.439 208.93C202 209.676 200.45 210.283 198.873 210.642C197.988 210.863 197.047 211.056 196.106 211.084C195.248 211.139 195.027 211.25 194.612 210.394C194.086 209.896 194.141 209.565 194.75 209.399C194.944 209.317 195.11 209.234 195.303 209.151C197.074 208.322 198.873 207.522 200.644 206.693C202.028 206.058 203.383 205.506 204.324 204.263C205.431 202.8 206.206 201.06 207.091 199.458C208.115 197.608 209.139 195.758 210.135 193.935C210.384 193.438 209.665 193.024 209.416 193.494Z" fill="black"/>
<path id="Vector_88" d="M201.971 210.228C202.801 210.67 203.825 211.112 204.738 210.67C205.209 210.421 205.403 210.035 205.624 209.593C206.011 208.847 206.399 208.267 207.118 207.798C207.561 207.494 207.146 206.776 206.703 207.08C206.039 207.522 205.486 208.074 205.098 208.792C204.821 209.317 204.655 209.952 203.936 210.007C203.41 210.062 202.829 209.731 202.386 209.51C201.944 209.289 201.501 209.979 201.971 210.228Z" fill="black"/>
<path id="Vector_89" d="M208.391 211.581C209.304 213.293 211.324 212.603 212.348 211.415C214.368 209.04 215.945 206.169 217.661 203.6C217.965 203.159 217.246 202.744 216.941 203.186C215.862 204.788 214.783 206.39 213.704 207.991C213.095 208.875 210.411 213.652 209.11 211.167C208.861 210.697 208.142 211.112 208.391 211.581Z" fill="black"/>
<path id="Vector_90" d="M197.129 212.161C199.149 213.072 201.584 214.453 203.881 214.453C206.094 214.425 207.727 212.603 209.221 211.222C213.51 207.245 217.799 203.269 222.088 199.32C222.476 198.961 221.895 198.381 221.507 198.74C217.882 202.109 214.257 205.45 210.632 208.819C209.027 210.283 207.367 212.382 205.347 213.293C202.967 214.37 199.702 212.437 197.572 211.47C197.073 211.222 196.658 211.94 197.129 212.161Z" fill="black"/>
<path id="Vector_91" d="M222.061 199.541C229.449 197.47 236.616 194.709 243.478 191.284C246.882 189.572 250.202 187.722 253.44 185.679C256.345 183.856 259.417 182.006 261.492 179.217C261.796 178.775 261.077 178.361 260.773 178.803C258.614 181.73 255.238 183.635 252.195 185.513C249.095 187.418 245.885 189.186 242.62 190.815C235.952 194.101 229.006 196.752 221.839 198.768C221.341 198.878 221.562 199.679 222.061 199.541Z" fill="black"/>
<path id="Vector_92" d="M249.262 117.996C251.559 113.495 257.453 114.516 260.358 117.72C263.845 121.586 264.011 127.247 264.398 132.162C265.229 142.904 265.395 153.729 264.731 164.471C264.398 169.69 263.624 175.213 260.137 179.355C259.805 179.769 260.386 180.349 260.718 179.935C263.845 176.179 264.924 171.43 265.367 166.68C265.948 160.605 265.948 154.447 265.893 148.344C265.837 141.965 265.533 135.559 264.952 129.207C264.509 124.43 263.651 119.156 259.694 115.98C256.318 113.274 250.674 113.357 248.515 117.582C248.294 118.051 249.013 118.465 249.262 117.996Z" fill="black"/>
<path id="Vector_93" opacity="0.24" d="M227.567 52.6054C227.788 55.1736 227.955 58.9015 227.567 63.3198C226.377 76.7128 221.064 86.0188 219.681 88.3384C217.578 91.8731 213.981 97.0093 208.225 102.062C209.941 101.841 211.905 101.455 214.008 100.709C219.792 98.6662 223.665 95.1592 225.768 92.8672C225.935 95.9324 226.46 99.6603 227.705 103.747C228.259 105.487 228.868 107.088 229.504 108.524C230.971 106.619 232.41 104.713 233.876 102.78C233.572 100.985 233.295 99.0804 233.101 97.1198C232.465 91.1827 232.465 85.7151 232.797 80.8549C234.042 80.8825 235.841 80.7721 237.75 80.0265C246.107 76.7128 250.866 63.5407 246.356 56.361C246.162 56.0572 245.166 54.5108 243.118 53.1301C236.782 48.8775 228.729 52.1084 227.567 52.6054Z" fill="#9B9797"/>
<path id="Vector_94" d="M193.865 57.8246C191.513 66.6059 190.101 75.9396 192.26 84.9143C194.031 92.2045 198.513 100.516 206.151 102.891C206.649 103.057 206.87 102.256 206.372 102.09C198.707 99.7156 194.418 91.0723 192.841 83.7821C190.987 75.2216 192.398 66.385 194.639 58.0455C194.805 57.5484 194.003 57.3275 193.865 57.8246Z" fill="black"/>
<path id="Vector_95" d="M206.759 102.753C219.516 101.455 230.169 92.2596 233.158 79.7779C233.268 79.2532 232.494 79.0323 232.355 79.557C229.45 91.6245 219.184 100.654 206.759 101.924C206.234 101.979 206.206 102.808 206.759 102.753Z" fill="black"/>
<path id="Vector_96" d="M232.438 79.9988C238.139 83.4782 243.7 76.188 244.06 71.0794C244.254 68.3732 243.009 66.3021 240.325 65.5289C237.834 64.8109 235.122 65.5565 233.351 67.4343C232.992 67.8209 233.573 68.4008 233.933 68.0142C235.399 66.4401 237.613 65.7498 239.743 66.2192C240.85 66.4678 242.068 67.0753 242.704 68.0694C243.396 69.1464 243.313 70.6375 243.147 71.8249C242.483 76.1052 237.723 82.2356 232.853 79.2532C232.411 79.0047 231.968 79.7227 232.438 79.9988Z" fill="black"/>
<path id="Vector_97" d="M232.383 79.9436C231.304 87.5928 231.69 95.3524 233.516 102.863C233.655 103.388 234.457 103.167 234.319 102.642C232.52 95.2696 232.133 87.648 233.184 80.1645C233.24 79.6398 232.438 79.4189 232.383 79.9436Z" fill="black"/>
<path id="Vector_98" d="M218.077 98.8594C218.935 103.333 220.263 107.668 222.089 111.865C222.311 112.362 223.03 111.921 222.809 111.451C221.01 107.337 219.71 103.056 218.879 98.6385C218.769 98.1139 217.994 98.3348 218.077 98.8594Z" fill="black"/>
<path id="Vector_99" d="M222.669 111.976C228.01 111.12 232.52 107.447 234.54 102.449C234.734 101.952 233.932 101.731 233.738 102.228C231.829 106.978 227.484 110.374 222.448 111.175C221.922 111.258 222.144 112.059 222.669 111.976Z" fill="black"/>
<path id="Vector_100" d="M218.74 99.8254C219.875 99.8814 220.649 99.1079 221.507 98.4451C222.642 97.5615 223.721 96.6226 224.717 95.6285C226.571 93.7783 228.065 91.652 229.034 89.2219C229.227 88.7249 228.425 88.504 228.231 89.001C227.373 91.1549 226.045 93.0603 224.44 94.7172C223.721 95.4904 222.946 96.1808 222.144 96.8711C221.258 97.6167 219.985 99.0527 218.74 98.9974C218.214 98.9698 218.214 99.7982 218.74 99.8254Z" fill="black"/>
<path id="Vector_101" d="M218.796 99.3843C221.148 97.8655 223.334 96.1258 225.382 94.2204C225.769 93.8614 225.188 93.2539 224.801 93.6405C222.809 95.5183 220.678 97.2028 218.381 98.6939C217.911 98.9425 218.354 99.6604 218.796 99.3843Z" fill="black"/>
<path id="Vector_102" d="M202.525 59.4262C200.975 66.4678 200.09 73.62 199.896 80.8273C199.896 81.2415 200.449 81.3796 200.671 81.0482C201.75 79.3361 202.829 77.5964 203.908 75.8843C204.185 75.4425 203.466 75.0007 203.189 75.4701C202.11 77.1822 201.031 78.9219 199.951 80.634C200.2 80.7169 200.477 80.7721 200.726 80.8549C200.92 73.7304 201.805 66.6335 203.327 59.6747C203.438 59.1224 202.635 58.9015 202.525 59.4262Z" fill="black"/>
<path id="Vector_103" d="M203.632 91.2103C202.967 89.9677 202.525 88.6422 202.414 87.2338C202.331 86.2397 202.552 82.208 204.434 83.8096C205.43 84.6657 205.292 86.5435 205.319 87.7861C205.319 88.366 205.319 88.9735 205.264 89.5534C205.236 89.9677 205.181 90.3819 205.098 90.7685C204.379 91.2655 203.825 91.2379 203.466 90.7133C203.106 90.3267 202.497 90.9066 202.884 91.2932C204.074 92.5082 205.624 92.5634 205.956 90.658C206.205 89.3049 206.205 87.869 206.094 86.5159C206.011 85.4389 206.011 83.8925 205.209 83.0641C204.019 81.849 202.331 82.9812 201.861 84.2791C201.003 86.5987 201.833 89.5258 202.94 91.6245C203.161 92.094 203.881 91.6798 203.632 91.2103Z" fill="black"/>
<path id="Vector_104" d="M209.359 66.3573C210.19 70.251 215.309 70.5547 216.831 66.9649C217.024 66.4678 216.222 66.2469 216.028 66.7439C214.783 69.6711 210.798 69.1188 210.162 66.1364C210.051 65.6394 209.249 65.8327 209.359 66.3573Z" fill="black"/>
<path id="Vector_105" d="M207.727 56.7752C208.778 54.4279 211.49 53.2957 213.981 53.8204C216.554 54.3727 218.519 56.3609 219.792 58.5425C220.068 59.0119 220.788 58.5977 220.511 58.1283C219.044 55.6154 216.72 53.3786 213.732 52.9368C211.047 52.5502 208.17 53.8204 207.007 56.3333C206.786 56.858 207.506 57.2722 207.727 56.7752Z" fill="black"/>
<path id="Vector_106" d="M191.513 57.6865C192.26 56.1401 193.56 54.4556 195.47 54.4832C197.296 54.5109 198.624 56.1125 199.537 57.5208C199.814 57.9627 200.533 57.5484 200.257 57.1066C199.205 55.4221 197.628 53.6824 195.47 53.6548C193.256 53.6272 191.706 55.4498 190.821 57.2723C190.572 57.7417 191.291 58.156 191.513 57.6865Z" fill="black"/>
<path id="Vector_107" d="M196.41 70.1958C196.899 70.1958 197.296 68.3784 197.296 66.1365C197.296 63.8946 196.899 62.0772 196.41 62.0772C195.921 62.0772 195.525 63.8946 195.525 66.1365C195.525 68.3784 195.921 70.1958 196.41 70.1958Z" fill="black"/>
<path id="Vector_108" d="M198.955 113.881C198.872 114.903 198.761 116.311 198.706 117.941C198.457 123.519 198.678 127.744 198.761 128.876C198.983 132.549 199.481 137.354 200.643 142.932C199.536 144.202 197.876 146.08 195.745 148.289C191.705 152.514 189.63 154.668 186.309 156.905C182.601 159.39 180.028 160.163 178.644 160.522C176.901 160.936 175.241 161.323 173.221 160.881C169.928 160.135 167.963 157.705 167.244 156.766C165.418 154.447 165.003 152.182 164.255 147.764C163.702 144.533 163.591 142.076 163.425 137.326C163.342 135.062 163.232 132.3 163.287 128.6C163.342 124.43 163.564 119.487 164.172 113.964C164.449 111.479 164.836 108.414 165.445 104.934C164.975 104.272 164.477 103.609 163.951 102.918C163.398 102.2 162.872 101.51 162.318 100.82C160.907 102.007 159.524 103.222 158.112 104.41C157.753 104.548 157.116 104.769 156.341 104.686C154.875 104.548 154.017 103.526 153.713 103.195C152.357 101.648 152.55 99.688 152.606 99.3014C154.515 97.2303 156.424 95.1868 158.361 93.1157C158.389 91.9283 158.555 90.3819 159.026 88.6698C159.385 87.3996 159.828 86.3502 160.243 85.4666C160.603 84.7486 161.101 83.9478 161.737 83.147C162.872 81.6558 164.089 80.6064 165.086 79.8885C164.283 80.2475 164.089 80.2475 164.034 80.1922C163.896 79.9713 165.196 78.3421 167.023 78.1764C168.046 78.0659 168.849 78.4525 169.402 78.7011C170.26 79.1153 170.841 79.6399 171.201 80.0265C172.916 78.563 174.632 77.0994 176.348 75.6635C176.956 76.0225 177.565 76.4367 178.174 76.8509C179.585 77.8174 180.858 78.7839 181.993 79.7228C181.578 80.2475 181.052 80.8274 180.388 81.4073C179.281 82.3738 178.174 82.9537 177.316 83.3403C177.842 83.5059 178.783 83.8925 179.253 84.8038C179.724 85.6875 179.53 86.654 179.253 87.869C179.059 88.6974 178.81 89.3602 178.617 89.802C178.727 90.9618 178.783 92.5358 178.451 94.3032C177.925 97.2027 176.707 99.3566 175.877 100.599C175.85 101.676 175.822 103.36 175.877 105.431C176.099 113.964 177.344 118.962 178.146 125.258C178.617 128.848 179.087 134.178 178.949 140.888C179.585 140.474 180.498 139.811 181.522 138.955C184.123 136.774 185.784 134.592 187.97 131.389C190.128 128.268 191.539 125.949 193.449 122.856C194.638 120.84 196.548 117.775 198.955 113.881Z" fill="white"/>
<path id="Vector_109" opacity="0.24" d="M173.803 88.6698C173.222 89.94 172.64 91.2379 172.059 92.5634C170.371 96.5399 168.987 100.35 167.853 103.995C167.604 109.739 167.465 114.544 167.355 118.023C167.216 123.298 167.548 129.594 168.157 142.186C168.406 147.378 168.628 150.526 171.064 152.818C173.609 155.192 177.15 155.248 179.142 155.248C189.768 155.22 197.71 146.19 199.896 143.567C196.935 148.593 193.559 151.879 191.262 153.812C188.661 155.993 185.313 158.727 180.111 160.08C175.711 161.24 173.719 160.991 173.193 160.881C169.402 159.97 167.3 156.822 166.553 155.745C164.754 153.066 164.172 150.277 163.84 144.285C163.508 138.127 163.869 136.497 163.98 128.02C164.063 119.929 163.757 117.637 164.366 112.031C164.726 108.745 165.169 106.039 165.528 104.216C164.449 103.084 163.37 101.952 162.291 100.847C161.378 101.648 160.438 102.421 159.497 103.222C158.888 103.747 158.251 104.271 157.642 104.769C157.089 104.824 156.286 104.796 155.428 104.437C153.215 103.498 151.831 100.764 152.523 99.8264C152.966 99.1908 154.129 99.6879 155.734 99.6879C158.501 99.7155 160.354 98.3072 164.034 95.6562C166.635 93.7508 169.625 91.6245 173.803 88.6698Z" fill="#9B9797"/>
<path id="Vector_110" d="M198.596 113.66C192.204 122.469 187.472 132.576 179.392 140.087C179.004 140.446 179.585 141.026 179.973 140.667C188.108 133.101 192.868 122.939 199.316 114.075C199.648 113.66 198.928 113.246 198.596 113.66Z" fill="black"/>
<path id="Vector_111" d="M174.799 161.516C185.757 160.798 193.616 151.63 200.201 143.843C200.533 143.429 199.952 142.849 199.62 143.263C193.228 150.885 185.48 159.997 174.827 160.715C174.273 160.715 174.273 161.544 174.799 161.516Z" fill="black"/>
<path id="Vector_112" d="M169.597 83.7269C169.652 85.9084 171.091 87.7862 173.194 88.3937C173.72 88.5318 173.941 87.731 173.416 87.5929C171.672 87.0958 170.482 85.5218 170.427 83.7269C170.399 83.2022 169.569 83.2022 169.597 83.7269Z" fill="black"/>
<path id="Vector_113" d="M170.455 83.4783C170.731 81.0759 175.02 82.8156 176.183 83.4231C177.317 84.003 178.452 84.5829 178.701 85.9636C178.894 87.013 178.562 88.1175 178.286 89.1393C178.147 89.6639 178.95 89.8849 179.088 89.3602C179.476 87.9795 179.891 86.4054 179.31 85.0523C178.756 83.6716 177.234 83.0365 175.989 82.429C174.716 81.8215 173.333 81.3796 171.894 81.5453C171.313 81.6282 170.565 81.7662 170.095 82.1528C169.597 82.5394 169.708 82.8156 169.625 83.5059C169.569 84.003 170.399 84.003 170.455 83.4783Z" fill="black"/>
<path id="Vector_114" d="M178.008 88.9736C177.925 91.0723 178.395 93.1157 177.897 95.2144C177.427 97.1474 176.486 98.9423 175.545 100.682C175.296 101.151 176.016 101.565 176.265 101.096C177.233 99.2737 178.202 97.4235 178.7 95.4353C179.226 93.2814 178.755 91.1551 178.838 88.9736C178.866 88.4213 178.036 88.4213 178.008 88.9736Z" fill="black"/>
<path id="Vector_115" d="M175.545 100.709C174.909 115.262 179.087 129.511 178.423 144.064C178.395 144.588 179.225 144.588 179.253 144.064C179.917 129.511 175.739 115.262 176.375 100.709C176.403 100.184 175.573 100.184 175.545 100.709Z" fill="black"/>
<path id="Vector_116" d="M161.96 101.013C162.79 102.173 163.675 103.277 164.671 104.299C165.031 104.686 165.612 104.106 165.253 103.719C164.312 102.725 163.454 101.703 162.679 100.599C162.347 100.157 161.628 100.571 161.96 101.013Z" fill="black"/>
<path id="Vector_117" d="M165.141 104.078C163.564 113.053 162.789 122.166 162.816 131.278C162.844 135.807 163.066 140.363 163.508 144.865C163.868 148.703 164.311 152.735 166.331 156.104C168.157 159.169 171.367 161.488 175.02 161.406C175.545 161.378 175.545 160.55 175.02 160.577C169.9 160.715 166.607 156.159 165.418 151.685C164.089 146.77 163.979 141.413 163.785 136.359C163.37 125.645 164.117 114.875 165.971 104.327C166.026 103.774 165.224 103.553 165.141 104.078Z" fill="black"/>
<path id="Vector_118" d="M159.911 91.6797C157.31 93.8613 154.792 96.1532 152.412 98.5557C152.025 98.9423 152.633 99.5222 152.993 99.1356C155.401 96.7332 157.891 94.4411 160.492 92.2596C160.907 91.9282 160.326 91.3483 159.911 91.6797Z" fill="black"/>
<path id="Vector_119" d="M152.163 99.3013C151.748 102.504 154.183 105.21 157.421 105.183C157.946 105.183 157.946 104.354 157.421 104.354C154.626 104.382 152.633 102.035 152.993 99.3013C153.076 98.7766 152.246 98.7766 152.163 99.3013Z" fill="black"/>
<path id="Vector_120" d="M152.938 99.1081C155.843 99.1909 157.863 101.786 157.255 104.603C157.144 105.128 157.946 105.349 158.057 104.824C158.804 101.427 156.424 98.3901 152.938 98.2796C152.412 98.2796 152.412 99.1081 152.938 99.1081Z" fill="black"/>
<path id="Vector_121" d="M158.39 104.686C161.545 101.814 164.754 98.9699 167.826 96.0152C169.237 94.6621 170.593 93.2814 171.866 91.7902C172.558 90.9894 174.301 89.4154 174.329 88.3108C174.329 88.1727 174.246 88.007 174.135 87.9518C174.08 87.9242 174.024 87.8966 173.997 87.8966C173.831 87.8137 173.609 87.8137 173.499 87.9518C173.471 87.9794 173.443 88.007 173.416 88.0623C173.084 88.4765 173.665 89.0564 173.997 88.6422C174.024 88.6146 174.052 88.5869 174.08 88.5317C173.914 88.5593 173.748 88.5869 173.582 88.5869C173.526 88.3384 173.443 88.3384 173.333 88.6146C173.194 88.8079 173.056 89.0012 172.89 89.1945C172.558 89.6087 172.253 90.0229 171.894 90.4371C171.34 91.1275 170.731 91.7902 170.15 92.453C168.933 93.7784 167.66 95.0211 166.359 96.2361C163.537 98.8871 160.659 101.455 157.809 104.078C157.394 104.465 158.003 105.045 158.39 104.686Z" fill="black"/>
<path id="Vector_122" d="M158.75 93.2261C158.944 91.9006 159.137 90.5752 159.331 89.2497C159.469 88.2555 159.58 87.151 160.133 86.2673C161.406 84.2239 163.205 85.6874 164.173 87.0681C164.588 87.648 164.976 88.2832 165.391 88.8631C165.612 89.1944 166.691 90.3819 166.553 90.7961C166.691 90.6856 166.83 90.6028 166.941 90.4923C166.885 90.4923 166.858 90.4923 166.802 90.4923C166.276 90.4647 166.276 91.2931 166.802 91.3207C166.858 91.3207 166.885 91.3207 166.941 91.3207C167.134 91.3207 167.3 91.1827 167.328 91.017C167.522 90.3266 167.051 89.9124 166.691 89.3601C166 88.3384 165.336 87.289 164.616 86.2949C163.869 85.2732 162.901 84.2791 161.517 84.4171C160.189 84.5552 159.386 85.577 158.971 86.7644C158.279 88.725 158.224 90.9618 157.92 93.0052C157.864 93.5299 158.667 93.7508 158.75 93.2261Z" fill="black"/>
<path id="Vector_123" d="M160.05 90.1058C160.798 91.5694 162.043 93.0606 163.814 93.171C165.28 93.2815 166.664 92.453 167.051 91.0171C167.19 90.4924 166.387 90.2715 166.249 90.7962C165.889 92.1217 164.422 92.6187 163.205 92.2045C162.043 91.7903 161.296 90.7686 160.77 89.7192C160.521 89.2221 159.801 89.6364 160.05 90.1058Z" fill="black"/>
<path id="Vector_124" d="M161.073 84.721C161.212 83.3679 162.761 83.0089 163.813 83.3679C164.92 83.7269 165.777 84.721 166.552 85.5218C167.161 86.157 168.351 87.0406 168.517 87.9243C168.738 89.1117 167.244 89.9125 166.248 90.2163C165.75 90.3543 165.943 91.1552 166.469 91.0171C167.687 90.6581 169.458 89.5811 169.651 88.1452C169.734 87.5653 169.375 87.2615 168.987 86.8473C168.212 86.0189 167.465 85.2181 166.663 84.4173C165.584 83.3127 164.2 82.1253 162.54 82.4014C161.295 82.5947 160.381 83.4231 160.243 84.6934C160.188 85.2457 161.018 85.2457 161.073 84.721Z" fill="black"/>
<path id="Vector_125" d="M162.567 82.6775C162.955 82.2357 163.149 81.6558 163.508 81.214C164.394 80.1094 165.777 81.1311 166.69 81.7939C168.461 83.0365 170.343 85.3009 168.738 87.4548C168.434 87.8966 169.153 88.3108 169.458 87.869C171.173 85.5494 169.485 82.8708 167.521 81.3796C166.607 80.6893 165.224 79.4466 163.979 79.8056C162.872 80.1094 162.678 81.3796 161.986 82.1252C161.627 82.4842 162.208 83.0641 162.567 82.6775Z" fill="black"/>
<path id="Vector_126" d="M165.363 80.1645C166.332 78.9771 167.605 77.7345 169.099 78.9771C170.095 79.7779 170.731 80.9101 171.091 82.0975C171.257 82.5946 172.032 82.4013 171.894 81.8766C171.423 80.275 170.344 78.4248 168.739 77.7621C167.107 77.0993 165.751 78.3972 164.782 79.5846C164.45 79.9712 165.031 80.5787 165.363 80.1645Z" fill="black"/>
<path id="Vector_127" d="M171.479 80.275C173.194 78.8114 174.91 77.3479 176.625 75.9119C177.04 75.553 176.432 74.973 176.044 75.332C174.329 76.7956 172.613 78.2592 170.897 79.6951C170.482 80.0541 171.091 80.634 171.479 80.275Z" fill="black"/>
<path id="Vector_128" d="M177.593 83.8096C179.226 82.6222 180.803 81.352 182.269 79.9713C182.657 79.6123 182.076 79.0324 181.688 79.3914C180.249 80.7168 178.755 81.9595 177.178 83.0917C176.735 83.3954 177.15 84.1134 177.593 83.8096Z" fill="black"/>
<path id="Vector_129" d="M190.017 81.7386C199.248 81.7386 206.731 74.2711 206.731 65.0595C206.731 55.8479 199.248 48.3805 190.017 48.3805C180.787 48.3805 173.304 55.8479 173.304 65.0595C173.304 74.2711 180.787 81.7386 190.017 81.7386Z" stroke="black" stroke-width="3" stroke-miterlimit="10"/>
<path id="Vector_130" d="M179.89 67.103C186.033 63.1817 192.314 59.4814 198.734 56.002C199.204 55.7535 198.789 55.0355 198.319 55.284C191.899 58.7358 185.618 62.4362 179.475 66.385C179.032 66.6888 179.447 67.4067 179.89 67.103Z" fill="black"/>
<path id="Vector_131" d="M180.581 74.3379C185.645 70.6376 190.764 67.0754 195.994 63.596C196.437 63.2922 196.022 62.5742 195.579 62.878C190.377 66.3574 185.23 69.9473 180.166 73.62C179.724 73.9237 180.139 74.6417 180.581 74.3379Z" fill="black"/>
</g>
</g>
</g>
</g>
<defs>
<clipPath id="clip0_38_3">
<rect width="336" height="304" fill="white"/>
</clipPath>
</defs>
</svg>
